# Blender 3.4.1
# www.blender.org
mtllib camera.mtl
o Plane
v -0.312746 0.186755 -0.493049
v -0.319688 0.193073 -0.496498
v 0.312746 0.186755 -0.493049
v 0.319688 0.193073 -0.496498
v 0.312746 -0.186755 -0.493049
v 0.319688 -0.193073 -0.496498
v -0.312746 -0.186755 -0.493049
v -0.319688 -0.193073 -0.496498
v 0.000000 -0.000000 0.000227
v 0.000000 -0.000000 0.010227
v -0.307452 0.188138 -0.490099
v 0.000000 0.003488 -0.003958
v 0.307452 0.188138 -0.490099
v 0.313545 0.183057 -0.490548
v 0.008744 -0.000000 -0.008599
v 0.313545 -0.183057 -0.490548
v -0.311217 0.184914 -0.494773
v 0.311217 0.184914 -0.494773
v 0.311217 -0.184914 -0.494773
v -0.311217 -0.184914 -0.494773
v 0.307452 -0.188138 -0.490099
v 0.000000 -0.003488 -0.003958
v -0.307452 -0.188138 -0.490099
v -0.313545 -0.183057 -0.490548
v -0.008744 -0.000000 -0.008599
v -0.313545 0.183057 -0.490548
vn 0.4856 -0.6699 -0.5616
vn 0.2435 0.9476 0.2067
vn -0.4856 -0.6699 -0.5616
vn -0.2435 0.9476 0.2067
vn -0.0000 -0.9054 0.4246
vn -0.0000 0.7919 0.6107
vn -0.5996 -0.5447 -0.5863
vn 0.8518 -0.3160 0.4178
vn -0.5996 0.5447 -0.5863
vn 0.8518 0.3160 0.4178
vn -0.9526 -0.0000 0.3041
vn 0.6957 -0.0000 0.7183
vn -0.0000 -0.6836 0.7299
vn -0.0000 -0.2068 -0.9784
vn -0.7482 -0.0000 0.6635
vn -0.1995 -0.0000 -0.9799
vn -0.0000 0.6836 0.7299
vn -0.0000 0.2068 -0.9784
vn 0.7482 -0.0000 0.6635
vn 0.1995 -0.0000 -0.9799
vn -0.4856 0.6699 -0.5616
vn -0.2435 -0.9476 0.2067
vn 0.4856 0.6699 -0.5616
vn 0.2435 -0.9476 0.2067
vn -0.0000 0.9054 0.4246
vn -0.0000 -0.7919 0.6107
vn 0.5996 0.5447 -0.5863
vn -0.8518 0.3160 0.4178
vn 0.5996 -0.5447 -0.5863
vn -0.8518 -0.3160 0.4178
vn 0.9526 -0.0000 0.3041
vn -0.6957 -0.0000 0.7183
vt 0.750000 0.490000
vt 0.250000 0.490000
vt 0.750000 0.490000
vt 0.250000 0.490000
vt 0.490000 0.250000
vt 0.990000 0.250000
vt 0.490000 0.250000
vt 0.990000 0.250000
vt 0.750000 0.010000
vt 0.250000 0.010000
vt 0.750000 0.010000
vt 0.250000 0.010000
vt 0.510000 0.250000
vt 0.010000 0.250000
vt 0.510000 0.250000
vt 0.010000 0.250000
vt 0.250000 0.250000
vt 0.250000 0.250000
vt 0.250000 0.490000
vt 0.250000 0.250000
vt 0.490000 0.250000
vt 0.490000 0.250000
vt 0.250000 0.250000
vt 0.250000 0.010000
vt 0.750000 0.490000
vt 0.990000 0.250000
vt 0.750000 0.010000
vt 0.510000 0.250000
vt 0.250000 0.010000
vt 0.250000 0.250000
vt 0.010000 0.250000
vt 0.010000 0.250000
vt 0.250000 0.250000
vt 0.250000 0.490000
s 0
usemtl Material.001
f 11/19/1 12/20/1 9/17/1 1/2/1
f 12/20/2 11/19/2 2/4/2 10/18/2
f 12/20/3 13/21/3 3/5/3 9/17/3
f 13/21/4 12/20/4 10/18/4 4/7/4
f 13/21/5 11/19/5 1/2/5 3/5/5
f 11/19/6 13/21/6 4/7/6 2/4/6
f 14/22/7 15/23/7 9/17/7 3/5/7
f 15/23/8 14/22/8 4/7/8 10/18/8
f 15/23/9 16/24/9 5/10/9 9/17/9
f 16/24/10 15/23/10 10/18/10 6/12/10
f 16/24/11 14/22/11 3/5/11 5/10/11
f 14/22/12 16/24/12 6/12/12 4/7/12
f 17/25/13 18/26/13 3/6/13 1/1/13
f 18/26/14 17/25/14 2/3/14 4/8/14
f 18/26/15 19/27/15 5/9/15 3/6/15
f 19/27/16 18/26/16 4/8/16 6/11/16
f 19/27/17 20/28/17 7/13/17 5/9/17
f 20/28/18 19/27/18 6/11/18 8/15/18
f 20/28/19 17/25/19 1/1/19 7/13/19
f 17/25/20 20/28/20 8/15/20 2/3/20
f 21/29/21 22/30/21 9/17/21 5/10/21
f 22/30/22 21/29/22 6/12/22 10/18/22
f 22/30/23 23/31/23 7/14/23 9/17/23
f 23/31/24 22/30/24 10/18/24 8/16/24
f 23/31/25 21/29/25 5/10/25 7/14/25
f 21/29/26 23/31/26 8/16/26 6/12/26
f 24/32/27 25/33/27 9/17/27 7/14/27
f 25/33/28 24/32/28 8/16/28 10/18/28
f 25/33/29 26/34/29 1/2/29 9/17/29
f 26/34/30 25/33/30 10/18/30 2/4/30
f 26/34/31 24/32/31 7/14/31 1/2/31
f 24/32/32 26/34/32 2/4/32 8/16/32
o Plane.001
v -0.216167 0.209847 -0.499500
v -0.000000 0.426014 -0.499500
v 0.216167 0.209847 -0.499500
vn -0.0000 -0.0000 -1.0000
vt 0.000000 0.000000
vt 0.000000 0.000000
vt 0.000000 0.000000
s 0
usemtl Material.001
f 28/36/33 29/37/33 27/35/33
