# Blender 3.6.0
# www.blender.org
mtllib camera.mtl
o Plane
v -0.286484 0.186737 0.002274
v -0.293344 0.193090 -0.001274
v 0.286484 0.186737 0.002274
v 0.293344 0.193090 -0.001274
v 0.286484 -0.186737 0.002274
v 0.293344 -0.193090 -0.001274
v -0.286484 -0.186737 0.002274
v -0.293344 -0.193090 -0.001274
v 0.000000 -0.000000 0.495500
v 0.000000 -0.000000 0.505500
v -0.281516 0.188138 0.005174
v 0.000000 0.003726 0.490691
v 0.281516 0.188138 0.005174
v 0.287406 0.183008 0.004825
v 0.008034 -0.000000 0.486644
v 0.287406 -0.183008 0.004825
v -0.284914 0.184914 0.000500
v 0.284914 0.184914 0.000500
v 0.284914 -0.184914 0.000500
v -0.284914 -0.184914 0.000500
v 0.281516 -0.188138 0.005174
v 0.000000 -0.003726 0.490691
v -0.281516 -0.188138 0.005174
v -0.287406 -0.183008 0.004825
v -0.008034 -0.000000 0.486644
v -0.287406 0.183008 0.004825
vn 0.4926 -0.6796 -0.5436
vn 0.2496 0.9443 0.2146
vn -0.4926 -0.6796 -0.5436
vn -0.2496 0.9443 0.2146
vn -0.0000 -0.9005 0.4349
vn -0.0000 0.7931 0.6091
vn -0.6232 -0.5394 -0.5662
vn 0.8693 -0.3081 0.3864
vn -0.6232 0.5394 -0.5662
vn 0.8693 0.3081 0.3864
vn -0.9405 -0.0000 0.3398
vn 0.7165 -0.0000 0.6976
vn -0.0000 -0.6972 0.7168
vn -0.0000 -0.2120 -0.9773
vn -0.7488 -0.0000 0.6628
vn -0.2059 -0.0000 -0.9786
vn -0.0000 0.6972 0.7168
vn -0.0000 0.2120 -0.9773
vn 0.7488 -0.0000 0.6628
vn 0.2059 -0.0000 -0.9786
vn -0.4926 0.6796 -0.5436
vn -0.2496 -0.9443 0.2146
vn 0.4926 0.6796 -0.5436
vn 0.2496 -0.9443 0.2146
vn -0.0000 0.9005 0.4349
vn -0.0000 -0.7931 0.6091
vn 0.6232 0.5394 -0.5662
vn -0.8693 0.3081 0.3864
vn 0.6232 -0.5394 -0.5662
vn -0.8693 -0.3081 0.3864
vn 0.9405 -0.0000 0.3398
vn -0.7165 -0.0000 0.6976
vt 0.250000 0.490000
vt 0.250000 0.250000
vt 0.490000 0.250000
vt 0.250000 0.010000
vt 0.750000 0.490000
vt 0.990000 0.250000
vt 0.750000 0.010000
vt 0.510000 0.250000
vt 0.010000 0.250000
s 0
usemtl Material.001
f 11/1/1 12/2/1 9/2/1 1/1/1
f 12/2/2 11/1/2 2/1/2 10/2/2
f 12/2/3 13/3/3 3/3/3 9/2/3
f 13/3/4 12/2/4 10/2/4 4/3/4
f 13/3/5 11/1/5 1/1/5 3/3/5
f 11/1/6 13/3/6 4/3/6 2/1/6
f 14/3/7 15/2/7 9/2/7 3/3/7
f 15/2/8 14/3/8 4/3/8 10/2/8
f 15/2/9 16/4/9 5/4/9 9/2/9
f 16/4/10 15/2/10 10/2/10 6/4/10
f 16/4/11 14/3/11 3/3/11 5/4/11
f 14/3/12 16/4/12 6/4/12 4/3/12
f 17/5/13 18/6/13 3/6/13 1/5/13
f 18/6/14 17/5/14 2/5/14 4/6/14
f 18/6/15 19/7/15 5/7/15 3/6/15
f 19/7/16 18/6/16 4/6/16 6/7/16
f 19/7/17 20/8/17 7/8/17 5/7/17
f 20/8/18 19/7/18 6/7/18 8/8/18
f 20/8/19 17/5/19 1/5/19 7/8/19
f 17/5/20 20/8/20 8/8/20 2/5/20
f 21/4/21 22/2/21 9/2/21 5/4/21
f 22/2/22 21/4/22 6/4/22 10/2/22
f 22/2/23 23/9/23 7/9/23 9/2/23
f 23/9/24 22/2/24 10/2/24 8/9/24
f 23/9/25 21/4/25 5/4/25 7/9/25
f 21/4/26 23/9/26 8/9/26 6/4/26
f 24/9/27 25/2/27 9/2/27 7/9/27
f 25/2/28 24/9/28 8/9/28 10/2/28
f 25/2/29 26/1/29 1/1/29 9/2/29
f 26/1/30 25/2/30 10/2/30 2/1/30
f 26/1/31 24/9/31 7/9/31 1/1/31
f 24/9/32 26/1/32 2/1/32 8/9/32
o Plane.001
v -0.216167 0.209847 0.000500
v -0.000000 0.426014 0.000500
v 0.216167 0.209847 0.000500
vn -0.0000 -0.0000 -1.0000
vt 0.000000 0.000000
s 0
usemtl Material.001
f 28/10/33 29/10/33 27/10/33
